<?xml version="1.0" encoding="UTF-8"?>
<svg width="128" height="128" viewBox="0 0 256 256" fill="none" xmlns="http://www.w3.org/2000/svg" role="img" aria-label="Campus CEMS mark">
  <defs>
    <linearGradient id="bg" x1="28" y1="28" x2="228" y2="228" gradientUnits="userSpaceOnUse">
      <stop stop-color="#0B2D5B"/>
      <stop offset="1" stop-color="#143E7A"/>
    </linearGradient>
    <linearGradient id="accent" x1="72" y1="70" x2="186" y2="186" gradientUnits="userSpaceOnUse">
      <stop stop-color="#2F80ED" stop-opacity="0.95"/>
      <stop offset="1" stop-color="#2F80ED" stop-opacity="0.45"/>
    </linearGradient>
  </defs>

  <rect x="20" y="20" width="216" height="216" rx="52" fill="url(#bg)"/>
  <rect x="36" y="36" width="184" height="184" rx="44" stroke="url(#accent)" stroke-width="3" opacity="0.7"/>

  <rect x="72" y="86" width="112" height="96" rx="18" fill="#FFFFFF" opacity="0.96"/>
  <rect x="72" y="86" width="112" height="26" rx="18" fill="#EAF2FF"/>

  <rect x="90" y="74" width="10" height="24" rx="5" fill="#2F80ED"/>
  <rect x="156" y="74" width="10" height="24" rx="5" fill="#2F80ED"/>

  <circle cx="100" cy="130" r="6" fill="#0B2D5B" opacity="0.9"/>
  <circle cx="128" cy="130" r="6" fill="#0B2D5B" opacity="0.9"/>
  <circle cx="156" cy="130" r="6" fill="#0B2D5B" opacity="0.9"/>
  <circle cx="100" cy="156" r="6" fill="#0B2D5B" opacity="0.9"/>
  <circle cx="128" cy="156" r="6" fill="#2F80ED" opacity="0.95"/>
  <circle cx="156" cy="156" r="6" fill="#0B2D5B" opacity="0.9"/>

  <path d="M128 98L176 114L128 130L80 114L128 98Z" fill="#0B2D5B" opacity="0.95"/>
  <path d="M92 119V135C92 141 109 148 128 148C147 148 164 141 164 135V119" stroke="#0B2D5B" stroke-width="6" stroke-linecap="round"/>
  <path d="M176 114V140" stroke="#2F80ED" stroke-width="6" stroke-linecap="round"/>
  <circle cx="176" cy="146" r="6" fill="#2F80ED"/>
</svg>
